<svg xmlns="http://www.w3.org/2000/svg" width="129.813" height="129.81" viewBox="0 0 129.813 129.81">
  <metadata><?xpacket begin="﻿" id="W5M0MpCehiHzreSzNTczkc9d"?>
<x:xmpmeta xmlns:x="adobe:ns:meta/" x:xmptk="Adobe XMP Core 5.6-c138 79.159824, 2016/09/14-01:09:01        ">
   <rdf:RDF xmlns:rdf="http://www.w3.org/1999/02/22-rdf-syntax-ns#">
      <rdf:Description rdf:about=""/>
   </rdf:RDF>
</x:xmpmeta>
                                                                                                    
                                                                                                    
                                                                                                    
                                                                                                    
                                                                                                    
                                                                                                    
                                                                                                    
                                                                                                    
                                                                                                    
                                                                                                    
                                                                                                    
                                                                                                    
                                                                                                    
                                                                                                    
                                                                                                    
                                                                                                    
                                                                                                    
                                                                                                    
                                                                                                    
                                                                                                    
                           
<?xpacket end="w"?></metadata>
<defs>
    <style>
      .cls-1 {
        fill: #fff;
        fill-rule: evenodd;
      }
    </style>
  </defs>
  <path class="cls-1" d="M548.78,1804.91H488.2a2.164,2.164,0,0,0-2.164,2.16v4.33a2.164,2.164,0,0,0,4.327,0v-2.17H548.78A2.16,2.16,0,1,0,548.78,1804.91Zm-45.435-67.07a2.164,2.164,0,0,0,2.163,2.16h8.655a2.164,2.164,0,0,0,2.163-2.16v-12.99a2.164,2.164,0,0,0-2.163-2.16h-8.655a2.164,2.164,0,0,0-2.163,2.16v12.99h0Zm4.327-10.82H512v8.65h-4.327v-8.65Zm-23.8-17.31H457.909a2.164,2.164,0,0,0-2.163,2.16v43.27a2.164,2.164,0,1,0,4.327,0v-41.1h23.8A2.165,2.165,0,0,0,483.872,1709.71Zm75.726,80.05a2.158,2.158,0,0,0,2.164,2.16h8.654a2.157,2.157,0,0,0,2.163-2.16v-12.98a2.164,2.164,0,0,0-2.163-2.16h-8.654a2.164,2.164,0,0,0-2.164,2.16v12.98Zm4.327-10.82h4.328v8.66h-4.328v-8.66Zm-97.361-17.31c-10.695,0-10.818,27.85-10.818,28.13a10.836,10.836,0,0,0,8.654,10.6v11.04a2.164,2.164,0,0,0,4.327,0v-11.04a10.836,10.836,0,0,0,8.654-10.6C477.381,1789.48,477.258,1761.63,466.564,1761.63Zm0,34.62a6.5,6.5,0,0,1-6.491-6.49c0-10.78,2.9-23.8,6.491-23.8s6.49,13.02,6.49,23.8A6.5,6.5,0,0,1,466.564,1796.25Zm12.981-47.6h-8.654a2.167,2.167,0,0,0-2.164,2.17v4.32a2.164,2.164,0,1,0,4.327,0v-2.16h4.327v10.82a2.164,2.164,0,0,0,4.327,0v-12.98A2.165,2.165,0,0,0,479.545,1748.65Zm82.217-8.65h8.654a2.164,2.164,0,0,0,2.163-2.16v-12.99a2.164,2.164,0,0,0-2.163-2.16h-8.654a2.164,2.164,0,0,0-2.164,2.16v12.99A2.164,2.164,0,0,0,561.762,1740Zm2.163-12.98h4.328v8.65h-4.328v-8.65Zm-84.38-4.33h-8.654a2.165,2.165,0,0,0-2.164,2.16v12.99a2.165,2.165,0,0,0,2.164,2.16h8.654a2.164,2.164,0,0,0,2.163-2.16v-12.99A2.162,2.162,0,0,0,479.545,1722.69Zm-2.164,12.98h-4.327v-8.65h4.328v8.65h0Zm47.6,2.17a2.164,2.164,0,0,0,2.163,2.16H535.8a2.164,2.164,0,0,0,2.163-2.16v-12.99a2.164,2.164,0,0,0-2.163-2.16h-8.655a2.164,2.164,0,0,0-2.163,2.16v12.99h0Zm4.327-10.82h4.327v8.65h-4.327v-8.65h0Zm54.09-17.31H557.435a2.165,2.165,0,0,0,0,4.33h23.8v86.94a6.225,6.225,0,0,0-2.163-.4,5.9,5.9,0,0,0-1.112.1,8.636,8.636,0,0,0-15.085,0,5.9,5.9,0,0,0-1.112-.1,6.49,6.49,0,1,0,0,12.98H579.07a6.5,6.5,0,0,0,6.491-6.49v-95.2A2.164,2.164,0,0,0,583.4,1709.71Zm-4.328,99.52H561.762a2.16,2.16,0,1,1,1.172-3.97,2.158,2.158,0,0,0,3.28-1.33,4.31,4.31,0,0,1,8.4,0,2.159,2.159,0,0,0,3.28,1.33,2.2,2.2,0,0,1,3.336,1.81A2.165,2.165,0,0,1,579.07,1809.23Zm-51.926-95.19H535.8a2.166,2.166,0,0,0,2.163-2.17v-12.98a2.164,2.164,0,0,0-2.163-2.16h-8.655a2.164,2.164,0,0,0-2.163,2.16v12.98A2.166,2.166,0,0,0,527.144,1714.04Zm2.164-12.99h4.327v8.66h-4.327v-8.66h0Zm-4.327,62.75a2.164,2.164,0,0,0,2.163,2.16H535.8a2.164,2.164,0,0,0,2.163-2.16v-12.98a2.166,2.166,0,0,0-2.163-2.17h-8.655a2.166,2.166,0,0,0-2.163,2.17v12.98h0Zm4.327-10.82h4.327v8.65h-4.327v-8.65h0Zm-23.8-38.94h8.655a2.166,2.166,0,0,0,2.163-2.17v-12.98a2.164,2.164,0,0,0-2.163-2.16h-8.655a2.164,2.164,0,0,0-2.163,2.16v12.98A2.166,2.166,0,0,0,505.508,1714.04Zm2.164-12.99H512v8.66h-4.327v-8.66Zm11.445,87.18a2.265,2.265,0,0,0-.627,1.53,2.164,2.164,0,1,0,4.327,0A2.164,2.164,0,0,0,519.117,1788.23Zm-15.772-24.43a2.164,2.164,0,0,0,2.163,2.16h8.655a2.164,2.164,0,0,0,2.163-2.16v-12.98a2.166,2.166,0,0,0-2.163-2.17h-8.655a2.166,2.166,0,0,0-2.163,2.17v12.98h0Zm4.327-10.82H512v8.65h-4.327v-8.65Zm-8.654,23.8a2.164,2.164,0,0,0,2.163,2.16h6.491v19.48a2.164,2.164,0,0,0,4.327,0v-19.48h17.309v19.48a2.164,2.164,0,0,0,4.327,0v-19.48h6.491a2.16,2.16,0,1,0,0-4.32H501.181A2.164,2.164,0,0,0,499.018,1776.78Zm60.58-12.98a2.164,2.164,0,0,0,2.164,2.16h8.654a2.164,2.164,0,0,0,2.163-2.16v-12.98a2.166,2.166,0,0,0-2.163-2.17h-8.654a2.166,2.166,0,0,0-2.164,2.17v12.98Zm4.327-10.82h4.328v8.65h-4.328v-8.65Zm-15.145-69.23H492.527a2.158,2.158,0,0,0-2.164,2.16v112.51a2.164,2.164,0,0,0,4.327,0V1688.07h51.927v110.35a2.164,2.164,0,0,0,4.327,0V1685.91A2.158,2.158,0,0,0,548.78,1683.75Z" transform="translate(-455.75 -1683.75)"/>
</svg>
