<svg xmlns="http://www.w3.org/2000/svg" width="25.38" height="25.38" viewBox="0 0 25.38 25.38">
  <metadata><?xpacket begin="﻿" id="W5M0MpCehiHzreSzNTczkc9d"?>
<x:xmpmeta xmlns:x="adobe:ns:meta/" x:xmptk="Adobe XMP Core 5.6-c138 79.159824, 2016/09/14-01:09:01        ">
   <rdf:RDF xmlns:rdf="http://www.w3.org/1999/02/22-rdf-syntax-ns#">
      <rdf:Description rdf:about=""/>
   </rdf:RDF>
</x:xmpmeta>
                                                                                                    
                                                                                                    
                                                                                                    
                                                                                                    
                                                                                                    
                                                                                                    
                                                                                                    
                                                                                                    
                                                                                                    
                                                                                                    
                                                                                                    
                                                                                                    
                                                                                                    
                                                                                                    
                                                                                                    
                                                                                                    
                                                                                                    
                                                                                                    
                                                                                                    
                                                                                                    
                           
<?xpacket end="w"?></metadata>
<defs>
    <style>
      .cls-1 {
        fill: #fac012;
        fill-rule: evenodd;
      }
    </style>
  </defs>
  <path id="Forma_1" data-name="Forma 1" class="cls-1" d="M1188.53,5370.03V5370h-1.69v0.03a12.668,12.668,0,0,0-11.81,11.81H1175v1.69h0.03a12.667,12.667,0,0,0,11.81,11.8v0.03h1.69v-0.03a12.657,12.657,0,0,0,11.8-11.8h0.03v-1.69h-0.03A12.659,12.659,0,0,0,1188.53,5370.03Zm-5.59,2.73a13.365,13.365,0,0,0-1.99,4h-2.53A11.066,11.066,0,0,1,1182.94,5372.76Zm-5.41,5.69h2.98a20.27,20.27,0,0,0-.42,3.39h-3.37A10.994,10.994,0,0,1,1177.53,5378.45Zm-0.81,5.08h3.37a20.149,20.149,0,0,0,.42,3.38h-2.98A10.865,10.865,0,0,1,1176.72,5383.53Zm1.7,5.07h2.53a13.365,13.365,0,0,0,1.99,4A11.066,11.066,0,0,1,1178.42,5388.6Zm8.42,4.96c-1.74-.46-3.24-2.33-4.15-4.96h4.15v4.96Zm0-6.65h-4.62a18.782,18.782,0,0,1-.44-3.38h5.06v3.38Zm0-5.07h-5.06a19.016,19.016,0,0,1,.44-3.39h4.62v3.39Zm0-5.08h-4.15c0.91-2.63,2.41-4.5,4.15-4.96v4.96Zm10.11,0h-2.53a13.617,13.617,0,0,0-2-4A11.093,11.093,0,0,1,1196.95,5376.76Zm-8.42-4.96c1.73,0.46,3.23,2.33,4.14,4.96h-4.14v-4.96Zm0,6.65h4.61a19.016,19.016,0,0,1,.44,3.39h-5.05v-3.39Zm0,5.08h5.05a18.782,18.782,0,0,1-.44,3.38h-4.61v-3.38Zm0,10.03v-4.96h4.14C1191.76,5391.23,1190.26,5393.1,1188.53,5393.56Zm3.89-.96a13.617,13.617,0,0,0,2-4h2.53A11.093,11.093,0,0,1,1192.42,5392.6Zm5.41-5.69h-2.97a20.161,20.161,0,0,0,.41-3.38h3.37A10.865,10.865,0,0,1,1197.83,5386.91Zm-2.56-5.07a20.282,20.282,0,0,0-.41-3.39h2.97a10.994,10.994,0,0,1,.81,3.39h-3.37Z" transform="translate(-1175 -5370)"/>
</svg>
