<svg xmlns="http://www.w3.org/2000/svg" width="25" height="19.62" viewBox="0 0 25 19.62">
  <metadata><?xpacket begin="﻿" id="W5M0MpCehiHzreSzNTczkc9d"?>
<x:xmpmeta xmlns:x="adobe:ns:meta/" x:xmptk="Adobe XMP Core 5.6-c138 79.159824, 2016/09/14-01:09:01        ">
   <rdf:RDF xmlns:rdf="http://www.w3.org/1999/02/22-rdf-syntax-ns#">
      <rdf:Description rdf:about=""/>
   </rdf:RDF>
</x:xmpmeta>
                                                                                                    
                                                                                                    
                                                                                                    
                                                                                                    
                                                                                                    
                                                                                                    
                                                                                                    
                                                                                                    
                                                                                                    
                                                                                                    
                                                                                                    
                                                                                                    
                                                                                                    
                                                                                                    
                                                                                                    
                                                                                                    
                                                                                                    
                                                                                                    
                                                                                                    
                                                                                                    
                           
<?xpacket end="w"?></metadata>
<defs>
    <style>
      .cls-1 {
        fill: #fac012;
        fill-rule: evenodd;
      }
    </style>
  </defs>
  <path id="fa-envelope" class="cls-1" d="M1198.6,5507.73c-3.05,2.06-5.36,3.67-6.94,4.81-0.53.39-.96,0.7-1.29,0.92a7.991,7.991,0,0,1-1.32.67,4.176,4.176,0,0,1-1.54.34h-0.02a4.176,4.176,0,0,1-1.54-.34,7.991,7.991,0,0,1-1.32-.67c-0.33-.22-0.76-0.53-1.29-0.92q-1.875-1.38-6.93-4.81a7.5,7.5,0,0,1-1.41-1.21v11.07a2.145,2.145,0,0,0,.66,1.58,2.123,2.123,0,0,0,1.57.66h20.54a2.123,2.123,0,0,0,1.57-.66,2.145,2.145,0,0,0,.66-1.58v-11.07a7.867,7.867,0,0,1-1.4,1.21h0Zm0.74-6.89a2.155,2.155,0,0,0-1.57-.66h-20.54a1.972,1.972,0,0,0-1.65.73,2.787,2.787,0,0,0-.58,1.81,3.294,3.294,0,0,0,.77,1.91,6.878,6.878,0,0,0,1.63,1.61c0.32,0.22,1.27.88,2.86,1.99s2.81,1.95,3.65,2.54c0.1,0.07.3,0.21,0.6,0.43s0.55,0.39.75,0.53,0.44,0.28.73,0.45a4.4,4.4,0,0,0,.8.38,2.288,2.288,0,0,0,.7.12h0.02a2.288,2.288,0,0,0,.7-0.12,4.4,4.4,0,0,0,.8-0.38c0.29-.17.53-0.32,0.73-0.45s0.45-.31.75-0.53,0.5-.36.6-0.43c0.85-.59,3.03-2.11,6.52-4.53a6.816,6.816,0,0,0,1.71-1.72,3.724,3.724,0,0,0,.68-2.11A2.139,2.139,0,0,0,1199.34,5500.84Z" transform="translate(-1175 -5500.19)"/>
</svg>
