<svg xmlns="http://www.w3.org/2000/svg" width="34.282" height="49.994" viewBox="0 0 48 70">
  <metadata><?xpacket begin="﻿" id="W5M0MpCehiHzreSzNTczkc9d"?>
<x:xmpmeta xmlns:x="adobe:ns:meta/" x:xmptk="Adobe XMP Core 5.6-c138 79.159824, 2016/09/14-01:09:01        ">
   <rdf:RDF xmlns:rdf="http://www.w3.org/1999/02/22-rdf-syntax-ns#">
      <rdf:Description rdf:about=""/>
   </rdf:RDF>
</x:xmpmeta>
                                                                                                    
                                                                                                    
                                                                                                    
                                                                                                    
                                                                                                    
                                                                                                    
                                                                                                    
                                                                                                    
                                                                                                    
                                                                                                    
                                                                                                    
                                                                                                    
                                                                                                    
                                                                                                    
                                                                                                    
                                                                                                    
                                                                                                    
                                                                                                    
                                                                                                    
                                                                                                    
                           
<?xpacket end="w"?></metadata>
<defs>
    <style>
      .cls-1 {
        fill: #fac012;
        fill-rule: evenodd;
      }
    </style>
  </defs>
  <path id="Forma_1" data-name="Forma 1" class="cls-1" d="M1215.4,4951.92a3.777,3.777,0,0,0,1.04.85l0.02,0.01,0.67,0.21,0.67-.21,0.02-.01a3.777,3.777,0,0,0,1.04-.85s19.9-22.15,21.9-41.34a24.942,24.942,0,0,0,.2-3.01c0-13.57-10.74-24.56-24-24.56s-24,10.99-24,24.56a25.61,25.61,0,0,0,.2,3.05C1195.21,4929.8,1215.4,4951.92,1215.4,4951.92Zm1.56-60.15a15.8,15.8,0,1,1-15.44,15.8A15.645,15.645,0,0,1,1216.96,4891.77Z" transform="translate(-1192.97 -4883)"/>
</svg>
