<svg xmlns="http://www.w3.org/2000/svg" width="111" height="129.97" viewBox="0 0 111 129.97">
  <metadata><?xpacket begin="﻿" id="W5M0MpCehiHzreSzNTczkc9d"?>
<x:xmpmeta xmlns:x="adobe:ns:meta/" x:xmptk="Adobe XMP Core 5.6-c138 79.159824, 2016/09/14-01:09:01        ">
   <rdf:RDF xmlns:rdf="http://www.w3.org/1999/02/22-rdf-syntax-ns#">
      <rdf:Description rdf:about=""/>
   </rdf:RDF>
</x:xmpmeta>
                                                                                                    
                                                                                                    
                                                                                                    
                                                                                                    
                                                                                                    
                                                                                                    
                                                                                                    
                                                                                                    
                                                                                                    
                                                                                                    
                                                                                                    
                                                                                                    
                                                                                                    
                                                                                                    
                                                                                                    
                                                                                                    
                                                                                                    
                                                                                                    
                                                                                                    
                                                                                                    
                           
<?xpacket end="w"?></metadata>
<defs>
    <style>
      .cls-1 {
        fill: #fff;
        fill-rule: evenodd;
      }
    </style>
  </defs>
  <path id="Forma_1" data-name="Forma 1" class="cls-1" d="M1172.85,1748.48a3.145,3.145,0,0,0-3.14,3.14v56.08h-33.75v-35.2a3.147,3.147,0,0,0-3.14-3.15h-24.64a3.147,3.147,0,0,0-3.14,3.15v27.91a3.145,3.145,0,1,0,6.29,0v-24.76h18.34v32.05h-58.38v-77.04l49.21-39.48,50.39,40.42a3.145,3.145,0,0,0,3.93-4.91l-52.35-42a3.157,3.157,0,0,0-3.94,0l-52.35,42a3.165,3.165,0,0,0-1.18,2.45v81.71a3.15,3.15,0,0,0,3.15,3.15h104.7a3.15,3.15,0,0,0,3.15-3.15v-59.23A3.141,3.141,0,0,0,1172.85,1748.48Z" transform="translate(-1065 -1684.03)"/>
</svg>
