<svg xmlns="http://www.w3.org/2000/svg" width="19.97" height="12.03" viewBox="0 0 19.97 12.03">
  <metadata><?xpacket begin="﻿" id="W5M0MpCehiHzreSzNTczkc9d"?>
<x:xmpmeta xmlns:x="adobe:ns:meta/" x:xmptk="Adobe XMP Core 5.6-c138 79.159824, 2016/09/14-01:09:01        ">
   <rdf:RDF xmlns:rdf="http://www.w3.org/1999/02/22-rdf-syntax-ns#">
      <rdf:Description rdf:about=""/>
   </rdf:RDF>
</x:xmpmeta>
                                                                                                    
                                                                                                    
                                                                                                    
                                                                                                    
                                                                                                    
                                                                                                    
                                                                                                    
                                                                                                    
                                                                                                    
                                                                                                    
                                                                                                    
                                                                                                    
                                                                                                    
                                                                                                    
                                                                                                    
                                                                                                    
                                                                                                    
                                                                                                    
                                                                                                    
                                                                                                    
                           
<?xpacket end="w"?></metadata>
<defs>
    <style>
      .cls-1 {
        fill: #fff;
        fill-rule: evenodd;
      }
    </style>
  </defs>
  <path id="fa-angle-up" class="cls-1" d="M1699.78,4273.71l-9.33-9.62a0.629,0.629,0,0,0-.92,0l-9.33,9.62a0.651,0.651,0,0,0-.2.47,0.691,0.691,0,0,0,.2.48l1,1.03a0.663,0.663,0,0,0,.46.2,0.629,0.629,0,0,0,.46-0.2l7.87-8.11,7.87,8.11a0.629,0.629,0,0,0,.46.2,0.663,0.663,0,0,0,.46-0.2l1-1.03a0.691,0.691,0,0,0,.2-0.48,0.651,0.651,0,0,0-.2-0.47h0Z" transform="translate(-1680 -4263.88)"/>
</svg>
