<svg xmlns="http://www.w3.org/2000/svg" width="15" height="25" viewBox="0 0 15 25">
  <metadata><?xpacket begin="﻿" id="W5M0MpCehiHzreSzNTczkc9d"?>
<x:xmpmeta xmlns:x="adobe:ns:meta/" x:xmptk="Adobe XMP Core 5.6-c138 79.159824, 2016/09/14-01:09:01        ">
   <rdf:RDF xmlns:rdf="http://www.w3.org/1999/02/22-rdf-syntax-ns#">
      <rdf:Description rdf:about=""/>
   </rdf:RDF>
</x:xmpmeta>
                                                                                                    
                                                                                                    
                                                                                                    
                                                                                                    
                                                                                                    
                                                                                                    
                                                                                                    
                                                                                                    
                                                                                                    
                                                                                                    
                                                                                                    
                                                                                                    
                                                                                                    
                                                                                                    
                                                                                                    
                                                                                                    
                                                                                                    
                                                                                                    
                                                                                                    
                                                                                                    
                           
<?xpacket end="w"?></metadata>
<defs>
    <style>
      .cls-1 {
        fill: #fac012;
        fill-rule: evenodd;
      }
    </style>
  </defs>
  <path id="Forma_1" data-name="Forma 1" class="cls-1" d="M1193.26,5436h-11.52a1.727,1.727,0,0,0-1.75,1.69v21.62a1.727,1.727,0,0,0,1.75,1.69h11.52a1.727,1.727,0,0,0,1.75-1.69v-21.62A1.727,1.727,0,0,0,1193.26,5436Zm-7.6,1.22h3.68a0.2,0.2,0,0,1,.21.2,0.211,0.211,0,0,1-.21.21h-3.68a0.211,0.211,0,0,1-.21-0.21A0.2,0.2,0,0,1,1185.66,5437.22Zm1.84,22.94a0.845,0.845,0,1,1,.87-0.85A0.86,0.86,0,0,1,1187.5,5460.16Zm6.29-2.29h-12.58v-19.19h12.58v19.19Z" transform="translate(-1180 -5436)"/>
</svg>
