<svg xmlns="http://www.w3.org/2000/svg" width="15.03" height="14.97" viewBox="0 0 15.03 14.97">
  <metadata><?xpacket begin="﻿" id="W5M0MpCehiHzreSzNTczkc9d"?>
<x:xmpmeta xmlns:x="adobe:ns:meta/" x:xmptk="Adobe XMP Core 5.6-c138 79.159824, 2016/09/14-01:09:01        ">
   <rdf:RDF xmlns:rdf="http://www.w3.org/1999/02/22-rdf-syntax-ns#">
      <rdf:Description rdf:about=""/>
   </rdf:RDF>
</x:xmpmeta>
                                                                                                    
                                                                                                    
                                                                                                    
                                                                                                    
                                                                                                    
                                                                                                    
                                                                                                    
                                                                                                    
                                                                                                    
                                                                                                    
                                                                                                    
                                                                                                    
                                                                                                    
                                                                                                    
                                                                                                    
                                                                                                    
                                                                                                    
                                                                                                    
                                                                                                    
                                                                                                    
                           
<?xpacket end="w"?></metadata>
<defs>
    <style>
      .cls-1 {
        fill: #b3b3b3;
        fill-rule: evenodd;
      }
    </style>
  </defs>
  <path id="fa-close" class="cls-1" d="M1349.65,2017.21l-3.72-3.71,3.72-3.7a1.163,1.163,0,0,0,.36-0.86,1.179,1.179,0,0,0-.36-0.86l-1.72-1.71a1.139,1.139,0,0,0-.86-0.35,1.17,1.17,0,0,0-.86.35l-3.72,3.71-3.72-3.71a1.232,1.232,0,0,0-1.72,0l-1.72,1.71a1.179,1.179,0,0,0-.36.86,1.163,1.163,0,0,0,.36.86l3.72,3.7-3.72,3.71a1.163,1.163,0,0,0-.36.86,1.141,1.141,0,0,0,.36.85l1.72,1.72a1.232,1.232,0,0,0,1.72,0l3.72-3.71,3.72,3.71a1.21,1.21,0,0,0,.86.35,1.177,1.177,0,0,0,.86-0.35l1.72-1.72a1.141,1.141,0,0,0,.36-0.85,1.163,1.163,0,0,0-.36-0.86h0Z" transform="translate(-1334.97 -2006.03)"/>
</svg>
