<svg xmlns="http://www.w3.org/2000/svg" width="24.94" height="24.94" viewBox="0 0 24.94 24.94">
  <metadata><?xpacket begin="﻿" id="W5M0MpCehiHzreSzNTczkc9d"?>
<x:xmpmeta xmlns:x="adobe:ns:meta/" x:xmptk="Adobe XMP Core 5.6-c138 79.159824, 2016/09/14-01:09:01        ">
   <rdf:RDF xmlns:rdf="http://www.w3.org/1999/02/22-rdf-syntax-ns#">
      <rdf:Description rdf:about=""/>
   </rdf:RDF>
</x:xmpmeta>
                                                                                                    
                                                                                                    
                                                                                                    
                                                                                                    
                                                                                                    
                                                                                                    
                                                                                                    
                                                                                                    
                                                                                                    
                                                                                                    
                                                                                                    
                                                                                                    
                                                                                                    
                                                                                                    
                                                                                                    
                                                                                                    
                                                                                                    
                                                                                                    
                                                                                                    
                                                                                                    
                           
<?xpacket end="w"?></metadata>
<defs>
    <style>
      .cls-1 {
        fill: #fac012;
        fill-rule: evenodd;
      }
    </style>
  </defs>
  <path class="cls-1" d="M1216.24,4464.23a21.078,21.078,0,0,0-6.1-2.33l0.19-.25a0.431,0.431,0,0,0,.06-0.35l-0.38-1.54a8.914,8.914,0,0,0,1.64-5.01v-1.66h1.25a0.414,0.414,0,0,0,.41-0.42,0.406,0.406,0,0,0-.41-0.41h-0.42v-0.42a7.105,7.105,0,0,0-.76-3.22l-3.73.72a0.22,0.22,0,0,1-.08.01,0.422,0.422,0,0,1-.41-0.5l0.68-3.58a9.553,9.553,0,0,0-1.1-.4v-0.09a1.253,1.253,0,0,0-1.26-1.25h-1.64a1.253,1.253,0,0,0-1.26,1.25v0.09a9.553,9.553,0,0,0-1.1.4l0.68,3.58a0.442,0.442,0,0,1-.12.38,0.425,0.425,0,0,1-.29.12,0.22,0.22,0,0,1-.08-0.01l-3.73-.72a7.105,7.105,0,0,0-.76,3.22v0.42h-0.42a0.406,0.406,0,0,0-.41.41,0.414,0.414,0,0,0,.41.42h1.25v1.66a8.914,8.914,0,0,0,1.64,5.01l-0.38,1.54a0.4,0.4,0,0,0,.07.35l0.18,0.25a21.185,21.185,0,0,0-6.1,2.33,2.311,2.311,0,0,0-1.23,2.05v1.78a0.406,0.406,0,0,0,.41.41h24.12a0.406,0.406,0,0,0,.41-0.41v-1.78A2.311,2.311,0,0,0,1216.24,4464.23Zm-17.06-9.48v-1.66h11.64v1.66a7.666,7.666,0,0,1-1.64,4.76,0.1,0.1,0,0,0-.05.04c-0.14.18-.29,0.35-0.44,0.51v0.01c-0.1.1-.21,0.2-0.31,0.3a4.664,4.664,0,0,1-6.76,0c-0.1-.1-0.21-0.2-0.31-0.3v-0.01c-0.15-.16-0.3-0.33-0.44-0.51a0.176,0.176,0,0,0-.05-0.04A7.666,7.666,0,0,1,1199.18,4454.75Zm1.28,6.57,0.19-.75h0a6.058,6.058,0,0,0,3.73,2.04h0l-1.13,2.54Zm2.97,6.32,0.25-1.25h2.64l0.11,0.53,0.14,0.72h-3.14Zm3.32-2.49-1.13-2.54h0a6.058,6.058,0,0,0,3.73-2.04h0l0.19,0.75Zm2.2-19.47-0.52,2.73,2.85-.55A7.165,7.165,0,0,0,1208.95,4445.68Zm-7.9,0a7.165,7.165,0,0,0-2.33,2.18l2.85,0.55Z" transform="translate(-1192.53 -4443.53)"/>
</svg>
