<svg xmlns="http://www.w3.org/2000/svg" width="21.469" height="25.09" viewBox="0 0 21.469 25.09">
  <metadata><?xpacket begin="﻿" id="W5M0MpCehiHzreSzNTczkc9d"?>
<x:xmpmeta xmlns:x="adobe:ns:meta/" x:xmptk="Adobe XMP Core 5.6-c138 79.159824, 2016/09/14-01:09:01        ">
   <rdf:RDF xmlns:rdf="http://www.w3.org/1999/02/22-rdf-syntax-ns#">
      <rdf:Description rdf:about=""/>
   </rdf:RDF>
</x:xmpmeta>
                                                                                                    
                                                                                                    
                                                                                                    
                                                                                                    
                                                                                                    
                                                                                                    
                                                                                                    
                                                                                                    
                                                                                                    
                                                                                                    
                                                                                                    
                                                                                                    
                                                                                                    
                                                                                                    
                                                                                                    
                                                                                                    
                                                                                                    
                                                                                                    
                                                                                                    
                                                                                                    
                           
<?xpacket end="w"?></metadata>
<defs>
    <style>
      .cls-1 {
        fill: #fac012;
        fill-rule: evenodd;
      }
    </style>
  </defs>
  <path id="Forma_1" data-name="Forma 1" class="cls-1" d="M415.969,4464.29s-2.787-4.79-3.286-5.65a2.312,2.312,0,0,0,1.426-.76c0.419-.72-0.327-1.91-0.131-2.69,0.2-.8,1.394-1.49,1.394-2.3,0-.79-1.233-1.71-1.435-2.51-0.2-.77.547-1.96,0.126-2.69s-1.822-.66-2.4-1.21c-0.594-.58-0.592-1.97-1.309-2.36s-1.887.4-2.686,0.21-1.494-1.37-2.318-1.37-2.168,1.35-2.376,1.4c-0.8.18-1.969-.59-2.687-0.21s-0.711,1.79-1.3,2.36c-0.576.56-1.978,0.5-2.4,1.22s0.327,1.91.131,2.69-1.43,1.57-1.43,2.47c0,0.81,1.195,1.5,1.4,2.3,0.2,0.77-.547,1.96-0.126,2.69a2.11,2.11,0,0,0,1.268.71,0.127,0.127,0,0,1,.1.2c-0.355.61-3.214,5.54-3.214,5.54a0.46,0.46,0,0,0,.41.75l2.218,0.09a1.778,1.778,0,0,1,1.263.73l1.183,1.88a0.457,0.457,0,0,0,.853-0.02s3.311-5.71,3.312-5.71a0.12,0.12,0,0,1,.165-0.04,2.287,2.287,0,0,0,1.289.62,2,2,0,0,0,1.175-.61,0.09,0.09,0,0,1,.16.03s3.308,5.68,3.308,5.68a0.46,0.46,0,0,0,.853.02l1.18-1.88a1.753,1.753,0,0,1,1.262-.74l2.217-.09A0.459,0.459,0,0,0,415.969,4464.29Zm-6.954-5.14a7.347,7.347,0,1,1-.147-12.81l0.055,0.03c0.026,0.01.051,0.03,0.077,0.04A7.363,7.363,0,0,1,409.015,4459.15Zm-0.56-11.7a0.058,0.058,0,0,0-.031-0.02,6.2,6.2,0,0,0-6.4,10.61c0.071,0.04.142,0.09,0.215,0.13A6.2,6.2,0,0,0,408.455,4447.45Zm0.739,4.83-1.035,1.01a1.734,1.734,0,0,0-.445,1.37l0.244,1.42c0.076,0.44-.186.63-0.583,0.43l-1.28-.68a1.727,1.727,0,0,0-1.441,0l-1.28.68c-0.4.2-.658,0.01-0.582-0.43l0.244-1.42a1.735,1.735,0,0,0-.446-1.37l-1.035-1.01c-0.32-.31-0.22-0.62.223-0.69l1.431-.2a1.768,1.768,0,0,0,1.166-.85l0.639-1.3c0.2-.4.523-0.4,0.721,0l0.64,1.3a1.766,1.766,0,0,0,1.166.85l1.431,0.2C409.415,4451.66,409.515,4451.97,409.194,4452.28Z" transform="translate(-394.594 -4442.97)"/>
</svg>
