<svg xmlns="http://www.w3.org/2000/svg" width="25.031" height="25.06" viewBox="0 0 25.031 25.06">
  <metadata><?xpacket begin="﻿" id="W5M0MpCehiHzreSzNTczkc9d"?>
<x:xmpmeta xmlns:x="adobe:ns:meta/" x:xmptk="Adobe XMP Core 5.6-c138 79.159824, 2016/09/14-01:09:01        ">
   <rdf:RDF xmlns:rdf="http://www.w3.org/1999/02/22-rdf-syntax-ns#">
      <rdf:Description rdf:about=""/>
   </rdf:RDF>
</x:xmpmeta>
                                                                                                    
                                                                                                    
                                                                                                    
                                                                                                    
                                                                                                    
                                                                                                    
                                                                                                    
                                                                                                    
                                                                                                    
                                                                                                    
                                                                                                    
                                                                                                    
                                                                                                    
                                                                                                    
                                                                                                    
                                                                                                    
                                                                                                    
                                                                                                    
                                                                                                    
                                                                                                    
                           
<?xpacket end="w"?></metadata>
<defs>
    <style>
      .cls-1 {
        fill: #fac012;
        fill-rule: evenodd;
      }
    </style>
  </defs>
  <path id="Forma_1" data-name="Forma 1" class="cls-1" d="M817.436,4454.61a0.821,0.821,0,0,0-.805-0.62,2.765,2.765,0,0,1-1.891-4.81,0.7,0.7,0,0,0,.076-0.95,12.425,12.425,0,0,0-1.983-2,0.69,0.69,0,0,0-.951.08,2.9,2.9,0,0,1-3.121.7,2.791,2.791,0,0,1-1.69-2.72,0.691,0.691,0,0,0-.615-0.73,12.047,12.047,0,0,0-2.815-.01,0.693,0.693,0,0,0-.62.71,2.79,2.79,0,0,1-1.713,2.68,2.888,2.888,0,0,1-3.1-.71,0.7,0.7,0,0,0-.945-0.08,12.5,12.5,0,0,0-2.024,2.01,0.7,0.7,0,0,0,.075.95,2.768,2.768,0,0,1,.7,3.12,2.9,2.9,0,0,1-2.723,1.7,0.672,0.672,0,0,0-.722.61,12.516,12.516,0,0,0-.006,2.85,0.835,0.835,0,0,0,.821.62,2.735,2.735,0,0,1,2.575,1.71,2.789,2.789,0,0,1-.7,3.1,0.7,0.7,0,0,0-.076.95,12.486,12.486,0,0,0,1.98,2,0.7,0.7,0,0,0,.952-0.07,2.885,2.885,0,0,1,3.12-.71,2.78,2.78,0,0,1,1.693,2.72,0.692,0.692,0,0,0,.614.73,11.571,11.571,0,0,0,1.442.09,12.659,12.659,0,0,0,1.374-.08,0.7,0.7,0,0,0,.619-0.72,2.787,2.787,0,0,1,1.712-2.67,2.888,2.888,0,0,1,3.1.71,0.7,0.7,0,0,0,.944.08,12.262,12.262,0,0,0,2.025-2.01,0.694,0.694,0,0,0-.075-0.95,2.765,2.765,0,0,1,1.859-4.82H816.7a0.7,0.7,0,0,0,.732-0.61A12.574,12.574,0,0,0,817.436,4454.61Zm-12.416,5.59a4.175,4.175,0,1,1,4.174-4.17A4.176,4.176,0,0,1,805.02,4460.2Z" transform="translate(-792.5 -4443.47)"/>
</svg>
