<svg xmlns="http://www.w3.org/2000/svg" width="24.969" height="23.82" viewBox="0 0 24.969 23.82">
  <metadata><?xpacket begin="﻿" id="W5M0MpCehiHzreSzNTczkc9d"?>
<x:xmpmeta xmlns:x="adobe:ns:meta/" x:xmptk="Adobe XMP Core 5.6-c138 79.159824, 2016/09/14-01:09:01        ">
   <rdf:RDF xmlns:rdf="http://www.w3.org/1999/02/22-rdf-syntax-ns#">
      <rdf:Description rdf:about=""/>
   </rdf:RDF>
</x:xmpmeta>
                                                                                                    
                                                                                                    
                                                                                                    
                                                                                                    
                                                                                                    
                                                                                                    
                                                                                                    
                                                                                                    
                                                                                                    
                                                                                                    
                                                                                                    
                                                                                                    
                                                                                                    
                                                                                                    
                                                                                                    
                                                                                                    
                                                                                                    
                                                                                                    
                                                                                                    
                                                                                                    
                           
<?xpacket end="w"?></metadata>
<defs>
    <style>
      .cls-1 {
        fill: #fac012;
        fill-rule: evenodd;
      }
    </style>
  </defs>
  <path id="fa-star" class="cls-1" d="M817.13,4233.11l-7.533-1.09-3.377-6.83a0.746,0.746,0,0,0-1.47,0l-3.377,6.83-7.533,1.09a0.781,0.781,0,0,0-.84.69,1.143,1.143,0,0,0,.375.72l5.462,5.32-1.29,7.5a2.435,2.435,0,0,0-.03.3,0.865,0.865,0,0,0,.157.53,0.536,0.536,0,0,0,.473.22,1.275,1.275,0,0,0,.6-0.18l6.738-3.54,6.738,3.54a1.214,1.214,0,0,0,.6.18,0.521,0.521,0,0,0,.458-0.22,0.865,0.865,0,0,0,.157-0.53,2.268,2.268,0,0,0-.015-0.3l-1.29-7.5,5.447-5.32a1.085,1.085,0,0,0,.39-0.72,0.781,0.781,0,0,0-.84-0.69h0Z" transform="translate(-793 -4224.56)"/>
</svg>
