<svg xmlns="http://www.w3.org/2000/svg" width="24.62" height="25.35" viewBox="0 0 24.62 25.35">
  <metadata><?xpacket begin="﻿" id="W5M0MpCehiHzreSzNTczkc9d"?>
<x:xmpmeta xmlns:x="adobe:ns:meta/" x:xmptk="Adobe XMP Core 5.6-c138 79.159824, 2016/09/14-01:09:01        ">
   <rdf:RDF xmlns:rdf="http://www.w3.org/1999/02/22-rdf-syntax-ns#">
      <rdf:Description rdf:about=""/>
   </rdf:RDF>
</x:xmpmeta>
                                                                                                    
                                                                                                    
                                                                                                    
                                                                                                    
                                                                                                    
                                                                                                    
                                                                                                    
                                                                                                    
                                                                                                    
                                                                                                    
                                                                                                    
                                                                                                    
                                                                                                    
                                                                                                    
                                                                                                    
                                                                                                    
                                                                                                    
                                                                                                    
                                                                                                    
                                                                                                    
                           
<?xpacket end="w"?></metadata>
<defs>
    <style>
      .cls-1 {
        fill: #fac012;
        fill-rule: evenodd;
      }
    </style>
  </defs>
  <path class="cls-1" d="M1216.77,4237.72l-0.47-.65a1.562,1.562,0,0,1-.02-1.82l0.46-.66a1.569,1.569,0,0,0-.53-2.28l-0.7-.38a1.551,1.551,0,0,1-.8-1.63l0.14-.8a1.55,1.55,0,0,0-1.46-1.81l-0.8-.04a1.528,1.528,0,0,1-1.42-1.12l-0.23-.78a1.54,1.54,0,0,0-2.09-1l-0.74.33a1.54,1.54,0,0,1-1.76-.4l-0.53-.6a1.537,1.537,0,0,0-2.32.02l-0.52.61a1.56,1.56,0,0,1-1.76.42l-0.74-.31a1.555,1.555,0,0,0-2.09,1.03l-0.21.78a1.555,1.555,0,0,1-1.4,1.15l-0.8.05a1.545,1.545,0,0,0-1.43,1.83l0.14,0.79a1.566,1.566,0,0,1-.77,1.65l-0.7.39a1.565,1.565,0,0,0-.5,2.28l0.48,0.65a1.578,1.578,0,0,1,.01,1.82l-0.47.67a1.56,1.56,0,0,0,.53,2.27l0.71,0.38a1.565,1.565,0,0,1,.79,1.64l-0.13.78a1.559,1.559,0,0,0,1.46,1.82l0.8,0.03a1.55,1.55,0,0,1,1.42,1.13l0.22,0.78a1.546,1.546,0,0,0,2.1.99l0.74-.32a1.522,1.522,0,0,1,1.76.39l0.53,0.6a1.537,1.537,0,0,0,2.32-.02l0.52-.61a1.56,1.56,0,0,1,1.76-.42l0.74,0.31a1.542,1.542,0,0,0,2.08-1.03l0.22-.78a1.57,1.57,0,0,1,1.4-1.15l0.8-.04a1.554,1.554,0,0,0,1.43-1.84l-0.14-.79a1.566,1.566,0,0,1,.77-1.65l0.7-.39A1.544,1.544,0,0,0,1216.77,4237.72Zm-12.03,6.23a7.79,7.79,0,1,1,7.74-7.79A7.755,7.755,0,0,1,1204.74,4243.95Zm4.55-9.75-2.89-.22-1.1-2.7a0.6,0.6,0,0,0-1.12,0l-1.09,2.7-2.9.22a0.606,0.606,0,0,0-.34,1.07l2.21,1.88-0.7,2.84a0.617,0.617,0,0,0,.92.67l2.46-1.54,2.46,1.54a0.611,0.611,0,0,0,.91-0.67l-0.69-2.84,2.21-1.88A0.6,0.6,0,0,0,1209.29,4234.2Z" transform="translate(-1192.44 -4223.59)"/>
</svg>
